<svg id="Layer_1" data-name="Layer 1" xmlns="http://www.w3.org/2000/svg" viewBox="0 0 947.09 610.64"><defs><style>.cls-1,.cls-2{fill:none;}.cls-1,.cls-2,.cls-8,.cls-9{stroke:#000;stroke-miterlimit:10;}.cls-1,.cls-8,.cls-9{stroke-width:20px;}.cls-3{font-size:144px;}.cls-3,.cls-4{font-family:Bungee-Shade, Bungee;}.cls-4{font-size:72px;}.cls-5{letter-spacing:-0.01em;}.cls-6{letter-spacing:-0.07em;}.cls-7{letter-spacing:0em;}.cls-9{fill:#fff;}</style></defs><path class="cls-1" d="M193.5,597.57" transform="translate(-109.46 -206.5)"/><path class="cls-2" d="M720.18,729.22" transform="translate(-109.46 -206.5)"/><path class="cls-1" d="M746.51,592.09" transform="translate(-109.46 -206.5)"/><path class="cls-1" d="M681.55,641.65" transform="translate(-109.46 -206.5)"/><path class="cls-1" d="M747.61,587.11" transform="translate(-109.46 -206.5)"/><path class="cls-1" d="M756.89,545.13" transform="translate(-109.46 -206.5)"/><text class="cls-3" transform="translate(243.24 277.26)">Box</text><text class="cls-4" transform="translate(422.44 354.72)">O<tspan class="cls-5" x="60.26" y="0">F</tspan></text><text class="cls-3" transform="translate(0 479.03)">BO<tspan class="cls-6" x="239.33" y="0">L</tspan><tspan class="cls-7" x="343.73" y="0">TS</tspan></text><path class="cls-8" d="M837.65,759.18l-83.72-.49-76-35.67a7.14,7.14,0,0,1-3.94-8l3.17-14.34,73.2-329,170.88,37.77L849.11,733.46l-4.44,20.12A7.14,7.14,0,0,1,837.65,759.18Z" transform="translate(-109.46 -206.5)"/><rect class="cls-8" x="683.19" y="269.04" width="330.77" height="122.83" rx="7.2" transform="translate(-18.14 -381.86) rotate(12.46)"/><path class="cls-2" d="M1029.55,775.24" transform="translate(-109.46 -206.5)"/><path class="cls-1" d="M887.77,650.21" transform="translate(-109.46 -206.5)"/><path class="cls-2" d="M977.92,671.18" transform="translate(-109.46 -206.5)"/><path class="cls-2" d="M968.56,713.55" transform="translate(-109.46 -206.5)"/><path class="cls-1" d="M888.87,645.23" transform="translate(-109.46 -206.5)"/><path class="cls-1" d="M898.15,603.24" transform="translate(-109.46 -206.5)"/><path class="cls-1" d="M748,471.55" transform="translate(-109.46 -206.5)"/><path class="cls-1" d="M908.53,556.28" transform="translate(-109.46 -206.5)"/><path class="cls-1" d="M757.84,427.21" transform="translate(-109.46 -206.5)"/><path class="cls-1" d="M918.33,511.94" transform="translate(-109.46 -206.5)"/><path class="cls-1" d="M767.64,382.87" transform="translate(-109.46 -206.5)"/><path class="cls-9" d="M862.26,739.5,778.53,739l-76-35.67a7.14,7.14,0,0,1-3.94-8L701.74,681,775,352l170.87,37.77-72.1,324-4.45,20.12A7.13,7.13,0,0,1,862.26,739.5Z" transform="translate(-109.46 -206.5)"/><rect class="cls-9" x="707.8" y="249.37" width="330.77" height="122.83" rx="7.2" transform="translate(-21.8 -387.63) rotate(12.46)"/><line class="cls-1" x1="818.66" y1="261.18" x2="658.16" y2="176.45"/><path class="cls-1" d="M928.13,467.6" transform="translate(-109.46 -206.5)"/><line class="cls-1" x1="828.46" y1="216.84" x2="713.25" y2="156.02"/><line class="cls-1" x1="760.27" y1="525.35" x2="599.77" y2="440.62"/><line class="cls-1" x1="769.63" y1="482.98" x2="609.14" y2="398.25"/><line class="cls-1" x1="779.06" y1="440.32" x2="618.57" y2="355.59"/><line class="cls-1" x1="788.85" y1="396.06" x2="628.35" y2="311.33"/><line class="cls-1" x1="798.48" y1="352.49" x2="637.98" y2="267.76"/><line class="cls-1" x1="808.86" y1="305.52" x2="648.36" y2="220.79"/><line class="cls-1" x1="617.22" y1="11.06" x2="592.59" y2="30.75"/><line class="cls-1" x1="756.93" y1="531.71" x2="731.49" y2="551.89"/><line class="cls-1" x1="911.14" y1="196.84" x2="886.42" y2="216.61"/></svg>